<?xml version="1.0" standalone="no"?>
<!DOCTYPE svg PUBLIC "-//W3C//DTD SVG 20010904//EN"
 "http://www.w3.org/TR/2001/REC-SVG-20010904/DTD/svg10.dtd">
<svg version="1.0" xmlns="http://www.w3.org/2000/svg"
 width="512.000000pt" height="512.000000pt" viewBox="0 0 512.000000 512.000000"
 preserveAspectRatio="xMidYMid meet">

<g transform="translate(0.000000,512.000000) scale(0.100000,-0.100000)"
fill="#000000" stroke="none">
<path d="M2335 5093 c-506 -44 -1021 -260 -1420 -596 -397 -335 -690 -806
-820 -1318 -89 -351 -99 -768 -25 -1127 79 -388 257 -768 506 -1078 75 -94
241 -274 253 -274 3 0 17 32 30 70 14 39 27 73 31 75 7 4 636 -188 645 -197 4
-4 -75 -226 -120 -341 -6 -14 10 -25 91 -63 479 -222 1068 -286 1589 -173 192
42 414 118 563 193 65 33 71 38 63 59 -5 12 -41 90 -80 172 -69 147 -70 150
-48 157 177 57 610 188 621 188 9 0 22 -24 35 -63 12 -34 25 -68 29 -75 6 -9
35 14 98 80 375 389 617 876 699 1408 25 162 31 476 11 643 -38 333 -116 592
-266 885 -348 683 -999 1179 -1751 1332 -164 34 -344 50 -524 48 -93 -1 -188
-3 -210 -5z m79 -1068 c-7 -126 -13 -251 -13 -277 l-1 -48 125 0 125 0 2 223
3 222 33 -220 c19 -121 36 -222 38 -224 3 -3 71 -9 152 -13 266 -14 627 -59
656 -82 10 -7 20 -56 32 -146 34 -278 3 -604 -84 -860 -82 -242 -233 -469
-403 -608 l-69 -56 0 -71 0 -71 58 -24 c85 -35 137 -67 176 -110 218 -241
-443 -463 -1024 -344 -207 43 -365 135 -385 223 -19 86 73 178 238 240 26 10
27 13 27 85 l0 74 -66 53 c-116 92 -243 258 -327 425 -152 304 -212 769 -146
1140 l11 62 136 21 c193 29 276 39 447 52 83 6 153 14 156 17 3 4 25 108 48
232 52 274 62 322 65 318 2 -2 -3 -106 -10 -233z m-1039 -782 c19 -86 73 -237
115 -321 27 -52 47 -99 43 -105 -12 -19 -75 -37 -133 -37 -102 0 -177 43 -224
129 -37 68 -40 165 -9 226 38 72 120 134 180 135 17 0 24 -7 28 -27z m2453 11
c47 -19 98 -68 125 -119 31 -61 28 -158 -9 -226 -47 -86 -122 -129 -224 -129
-58 0 -121 18 -133 37 -3 5 16 54 44 109 43 86 93 226 113 317 7 32 28 35 84
11z"/>
</g>
</svg>
